<svg xmlns="http://www.w3.org/2000/svg" width="124.528" height="32.145" viewBox="0 0 124.528 32.145"><path d="M9.987,2.275,13.918,0l3.938,2.275v27.6l-3.938,2.265L9.987,29.867Zm9.987,26.377,7.868-4.541V8.041L19.979,3.5V28.652ZM7.868,3.5,0,8.041V24.112l7.868,4.541Z" fill="#3d61cc"/><path d="M348.6,96.237V80.4h9.888v2.122h-7.428v5.02h5.214v2.072h-5.214v6.632H348.6Z" transform="translate(-313.029 -72.196)" fill="#ffffff"/><path d="M464.5,130.3l2.367,1.592v9.155H464.5Z" transform="translate(-417.103 -117.004)" fill="#ffffff"/><path d="M511.5,120.7h2.265v1.928h.051a3.754,3.754,0,0,1,3.633-2.132c2.551,0,4.01,1.622,4.01,4.265v7.48h-2.378v-7.01c0-1.734-.816-2.694-2.459-2.694a2.693,2.693,0,0,0-2.747,2.98v6.724h-2.367V120.7Z" transform="translate(-459.307 -108.203)" fill="#ffffff"/><path d="M625.861,92.592v1.622h2.194v1.878h-2.194v6.367c0,1,.439,1.449,1.408,1.449a5.468,5.468,0,0,0,.776-.051v1.874a6.83,6.83,0,0,1-1.317.112c-2.337,0-3.246-.888-3.246-3.123V96.092H621.8V94.214h1.684V91Z" transform="translate(-558.352 -81.714)" fill="#ffffff"/><path d="M695.9,128.969c0-2.02,1.551-3.255,4.3-3.418l3.163-.184v-.888c0-1.286-.867-2.051-2.316-2.051a2.224,2.224,0,0,0-2.439,1.694h-2.235c.132-2.081,1.908-3.622,4.765-3.622,2.8,0,4.592,1.48,4.592,3.8v7.959H703.45v-1.908H703.4a4.126,4.126,0,0,1-3.643,2.092C697.481,132.449,695.9,131.041,695.9,128.969Zm7.449-1.041v-.908l-2.847.173c-1.415.1-2.214.724-2.214,1.715,0,1.01.836,1.674,2.112,1.674a2.782,2.782,0,0,0,2.949-2.653Z" transform="translate(-624.891 -108.205)" fill="#ffffff"/><path d="M787.147,96.237V82.522H782.3V80.4h12.151v2.122h-4.836V96.247h-2.469Z" transform="translate(-702.475 -72.196)" fill="#ffffff"/><path d="M895.818,128.767c-.326,2.112-2.33,3.612-4.97,3.612-3.387,0-5.449-2.3-5.449-5.938,0-3.622,2.081-6.041,5.347-6.041,3.2,0,5.2,2.265,5.2,5.765v.816h-8.156v.143a3.024,3.024,0,0,0,3.1,3.337,2.615,2.615,0,0,0,2.663-1.694Zm-8.01-3.449h5.775a2.837,2.837,0,0,0-2.836-3.01,2.975,2.975,0,0,0-2.939,3.01Z" transform="translate(-795.054 -108.115)" fill="#ffffff"/><path d="M1009.864,124.672a2.625,2.625,0,0,0-2.714-2.2c-1.837,0-3.041,1.531-3.041,4.01,0,2.531,1.214,4.01,3.061,4.01a2.549,2.549,0,0,0,2.694-2.143h2.286c-.256,2.459-2.214,4.122-4.994,4.122-3.306,0-5.459-2.265-5.459-5.992,0-3.662,2.153-5.979,5.428-5.979a4.658,4.658,0,0,1,4.994,4.184h-2.255Z" transform="translate(-899.487 -108.204)" fill="#ffffff"/><path d="M1121.4,80.4l2.347,1.592v4.633h.051a3.766,3.766,0,0,1,3.653-2.132c2.531,0,4.051,1.694,4.051,4.306v7.439h-2.378v-6.98c0-1.7-.857-2.724-2.52-2.724a2.744,2.744,0,0,0-2.836,3.03v6.673H1121.4Z" transform="translate(-1006.973 -72.196)" fill="#ffffff"/><path d="M466.967,85.049,464.6,83.457V80.6l2.367,1.592Z" transform="translate(-417.193 -72.375)" fill="#ffffff"/></svg>
